<?xml version="1.0" encoding="UTF-8"?>
<!DOCTYPE svg PUBLIC "-//W3C//DTD SVG 1.1//EN" "http://www.w3.org/Graphics/SVG/1.1/DTD/svg11.dtd">
<svg xmlns="http://www.w3.org/2000/svg" version="1.1" width="512px" height="512px" style="shape-rendering:geometricPrecision; text-rendering:geometricPrecision; image-rendering:optimizeQuality; fill-rule:evenodd; clip-rule:evenodd" xmlns:xlink="http://www.w3.org/1999/xlink">
<g><path style="opacity:0.989" fill="#3e80d5" d="M 173.5,21.5 C 177.8,22.4666 180.467,25.1332 181.5,29.5C 181.5,51.5 181.5,73.5 181.5,95.5C 180.354,97.475 178.687,98.975 176.5,100C 119.167,100.667 61.8333,100.667 4.5,100C 2.25103,98.6484 0.584365,96.8151 -0.5,94.5C -0.5,71.8333 -0.5,49.1667 -0.5,26.5C 1.43331,24.4042 3.76664,22.9042 6.5,22C 62.1657,21.5 117.832,21.3333 173.5,21.5 Z"/></g>
<g><path style="opacity:0.988" fill="#3ba35a" d="M 338.5,21.5 C 393.834,21.3333 449.168,21.5 504.5,22C 507.233,22.9042 509.567,24.4042 511.5,26.5C 511.5,49.1667 511.5,71.8333 511.5,94.5C 510.416,96.8151 508.749,98.6484 506.5,100C 453.168,100.5 399.834,100.667 346.5,100.5C 346.5,98.8333 346.5,97.1667 346.5,95.5C 346.667,72.8309 346.5,50.1642 346,27.5C 343.891,24.8782 341.391,22.8782 338.5,21.5 Z"/></g>
<g><path style="opacity:1" fill="#feae06" d="M 173.5,21.5 C 228.5,21.5 283.5,21.5 338.5,21.5C 341.391,22.8782 343.891,24.8782 346,27.5C 346.5,50.1642 346.667,72.8309 346.5,95.5C 345.354,97.475 343.687,98.975 341.5,100C 288.501,100.5 235.501,100.667 182.5,100.5C 182.831,76.6608 182.498,52.9941 181.5,29.5C 180.467,25.1332 177.8,22.4666 173.5,21.5 Z"/></g>
<g><path style="opacity:1" fill="#eff1f4" d="M 41.5,52.5 C 74.1684,52.3334 106.835,52.5 139.5,53C 145.089,55.4507 146.922,59.6174 145,65.5C 143.773,67.7261 141.939,69.2261 139.5,70C 106.833,70.6667 74.1667,70.6667 41.5,70C 33.5548,64.1697 33.5548,58.3363 41.5,52.5 Z"/></g>
<g><path style="opacity:1" fill="#f5f2ee" d="M 206.5,52.5 C 238.835,52.3334 271.168,52.5 303.5,53C 310.463,55.3301 312.296,59.8301 309,66.5C 307.786,68.0488 306.286,69.2155 304.5,70C 271.833,70.6667 239.167,70.6667 206.5,70C 198.555,64.1697 198.555,58.3363 206.5,52.5 Z"/></g>
<g><path style="opacity:1" fill="#eff2f0" d="M 371.5,52.5 C 403.835,52.3334 436.168,52.5 468.5,53C 475.16,55.4902 476.993,59.9902 474,66.5C 472.786,68.0488 471.286,69.2155 469.5,70C 436.833,70.6667 404.167,70.6667 371.5,70C 365.911,67.5493 364.078,63.3826 366,57.5C 367.73,55.5981 369.563,53.9314 371.5,52.5 Z"/></g>
<g><path style="opacity:1" fill="#fec10a" d="M 181.5,29.5 C 182.498,52.9941 182.831,76.6608 182.5,100.5C 235.501,100.667 288.501,100.5 341.5,100C 343.687,98.975 345.354,97.475 346.5,95.5C 346.5,97.1667 346.5,98.8333 346.5,100.5C 346.667,227.834 346.5,355.167 346,482.5C 344.368,485.877 341.868,488.21 338.5,489.5C 283.167,489.5 227.833,489.5 172.5,489.5C 176.224,488.878 179.057,486.878 181,483.5C 181.5,354.167 181.667,224.834 181.5,95.5C 181.5,73.5 181.5,51.5 181.5,29.5 Z"/></g>
<g><path style="opacity:0.997" fill="#4fba6f" d="M 511.5,94.5 C 511.5,224.5 511.5,354.5 511.5,484.5C 509.567,486.596 507.233,488.096 504.5,489C 449.168,489.5 393.834,489.667 338.5,489.5C 341.868,488.21 344.368,485.877 346,482.5C 346.5,355.167 346.667,227.834 346.5,100.5C 399.834,100.667 453.168,100.5 506.5,100C 508.749,98.6484 510.416,96.8151 511.5,94.5 Z"/></g>
<g><path style="opacity:0.998" fill="#5b9bed" d="M -0.5,94.5 C 0.584365,96.8151 2.25103,98.6484 4.5,100C 61.8333,100.667 119.167,100.667 176.5,100C 178.687,98.975 180.354,97.475 181.5,95.5C 181.667,224.834 181.5,354.167 181,483.5C 179.057,486.878 176.224,488.878 172.5,489.5C 117.166,489.667 61.8323,489.5 6.5,489C 3.76664,488.096 1.43331,486.596 -0.5,484.5C -0.5,354.5 -0.5,224.5 -0.5,94.5 Z"/></g>
<g><path style="opacity:1" fill="#f8e5ae" d="M 317.5,145.5 C 279.5,145.5 241.5,145.5 203.5,145.5C 221.988,144.167 240.821,143.5 260,143.5C 278.833,143.667 297.667,143.833 316.5,144C 317.056,144.383 317.389,144.883 317.5,145.5 Z"/></g>
<g><path style="opacity:1" fill="#f5f4f3" d="M 203.5,145.5 C 241.5,145.5 279.5,145.5 317.5,145.5C 318.794,146.29 319.961,147.29 321,148.5C 321.833,186.504 321.667,224.504 320.5,262.5C 318.679,264.243 316.679,265.743 314.5,267C 278.5,267.667 242.5,267.667 206.5,267C 203.804,266.31 201.637,264.81 200,262.5C 198.352,225.227 198.019,187.893 199,150.5C 199.612,147.885 201.112,146.219 203.5,145.5 Z"/></g>
<g><path style="opacity:1" fill="#f3f4f3" d="M 372.5,153.5 C 404.168,153.333 435.835,153.5 467.5,154C 468.931,154.465 470.097,155.299 471,156.5C 472.153,172.911 472.653,189.411 472.5,206C 472.167,221.833 471.833,237.667 471.5,253.5C 470.5,254.5 469.5,255.5 468.5,256.5C 436.505,257.667 404.505,257.833 372.5,257C 371.333,255.833 370.167,254.667 369,253.5C 368.333,221.5 368.333,189.5 369,157.5C 370.376,156.295 371.542,154.962 372.5,153.5 Z"/></g>
<g><path style="opacity:1" fill="#f3f4f4" d="M 44.5,154.5 C 75.1685,154.333 105.835,154.5 136.5,155C 138.587,155.792 140.421,156.959 142,158.5C 143.651,190.081 143.985,221.748 143,253.5C 142.654,255.848 141.487,257.681 139.5,259C 107.561,260.644 75.5609,260.978 43.5,260C 40.6193,258.749 38.786,256.583 38,253.5C 37.3333,222.833 37.3333,192.167 38,161.5C 39.0183,157.985 41.1849,155.652 44.5,154.5 Z"/></g>
<g><path style="opacity:1" fill="#51ba71" d="M 431.5,185.5 C 441.821,184.655 445.987,189.321 444,199.5C 435.833,207.667 427.667,215.833 419.5,224C 415.302,226.161 411.302,225.828 407.5,223C 403.631,219.466 400.131,215.633 397,211.5C 395.456,200.37 399.956,196.537 410.5,200C 411.667,201.167 412.833,202.333 414,203.5C 420.064,197.605 425.897,191.605 431.5,185.5 Z"/></g>
<g><path style="opacity:1" fill="#f3f4f3" d="M 375.5,327.5 C 407.168,327.333 438.835,327.5 470.5,328C 471.931,328.465 473.097,329.299 474,330.5C 475.153,346.911 475.653,363.411 475.5,380C 475.167,395.833 474.833,411.667 474.5,427.5C 473.5,428.5 472.5,429.5 471.5,430.5C 439.505,431.667 407.505,431.833 375.5,431C 374.333,429.833 373.167,428.667 372,427.5C 371.333,395.5 371.333,363.5 372,331.5C 373.376,330.295 374.542,328.962 375.5,327.5 Z"/></g>
<g><path style="opacity:1" fill="#51ba71" d="M 434.5,359.5 C 444.821,358.655 448.987,363.321 447,373.5C 438.833,381.667 430.667,389.833 422.5,398C 418.302,400.161 414.302,399.828 410.5,397C 406.631,393.466 403.131,389.633 400,385.5C 398.456,374.37 402.956,370.537 413.5,374C 414.667,375.167 415.833,376.333 417,377.5C 423.064,371.605 428.897,365.605 434.5,359.5 Z"/></g>
</svg>
